<svg width="279" height="314" viewBox="0 0 279 314" fill="none" xmlns="http://www.w3.org/2000/svg">
<path d="M278.986 92.1899C278.984 86.9173 277.856 82.2583 275.576 78.2607C273.336 74.3276 269.981 71.032 265.481 68.4263C228.339 47.0097 191.16 25.6586 154.03 4.22011C144.019 -1.55896 134.314 -1.34718 124.378 4.51485C109.594 13.2326 35.5761 55.639 13.5198 68.4143C4.43637 73.6737 0.0163744 81.7212 0.0141911 92.1801C0 135.25 0.0141911 178.32 0 221.39C0 226.547 1.0818 231.117 3.26178 235.054C5.50289 239.105 8.90439 242.492 13.5078 245.156C35.5652 257.931 109.593 300.335 124.373 309.056C134.314 314.921 144.019 315.13 154.033 309.35C191.164 287.911 228.345 266.56 265.493 245.143C270.097 242.48 273.498 239.091 275.739 235.043C277.916 231.105 279 226.536 279 221.378C279 221.378 279 135.261 278.986 92.1899Z" fill="#A179DC"/>
<path d="M139.927 156.366L3.2619 235.054C5.50301 239.105 8.90452 242.492 13.5079 245.156C35.5653 257.932 109.593 300.335 124.373 309.056C134.314 314.921 144.019 315.131 154.033 309.35C191.165 287.911 228.345 266.56 265.493 245.143C270.097 242.48 273.498 239.091 275.739 235.043L139.927 156.366Z" fill="#A179DC"/>
<path d="M278.986 92.19C278.984 86.9175 277.856 82.2584 275.576 78.2609L139.927 156.367L275.739 235.043C277.916 231.105 278.998 226.536 279 221.378C279 221.378 279 135.261 278.986 92.19Z" fill="#A179DC"/>
<path d="M220.391 126.949V141.658H235.099V126.949H242.454V141.658H257.162V149.012H242.454V163.72H257.162V171.074H242.454V185.783H235.099V171.074H220.391V185.783H213.037V171.074H198.329V163.72H213.037V149.012H198.329V141.658H213.037V126.949H220.391ZM235.099 149.011H220.391V163.72H235.099V149.011Z" fill="white"/>
<path d="M140.227 53.0814C178.591 53.0814 212.085 73.9161 230.026 104.886L229.852 104.588L184.713 130.577C175.82 115.52 159.518 105.358 140.815 105.149L140.226 105.145C111.707 105.145 88.5864 128.266 88.5864 156.785C88.5771 165.774 90.9254 174.608 95.3971 182.405C104.298 197.945 121.032 208.425 140.227 208.425C159.541 208.425 176.37 197.811 185.225 182.106L185.01 182.483L230.08 208.592C212.335 239.3 179.299 260.07 141.382 260.484L140.227 260.49C101.742 260.49 68.1523 239.527 50.2562 208.394C41.5199 193.195 36.5213 175.575 36.5213 156.785C36.5213 99.5115 82.9504 53.0803 140.226 53.0803L140.227 53.0814Z" fill="white"/>
</svg>
